<svg id="Capa_1" enable-background="new 0 0 511.754 511.754" height="128" viewBox="0 0 511.754 511.754" width="128" xmlns="http://www.w3.org/2000/svg"><path d="m23.358 0v511.754h465.037v-511.754zm435.038 481.754h-405.038v-451.754h405.037v451.754z"/><path d="m428.025 60.405h-344.261v124.815h344.262v-124.815zm-30 94.816h-284.261v-64.816h284.262v64.816z"/><path d="m337.403 451.156h90.622v-233.724h-90.622zm60.622-30h-30.622v-38.989h30.622zm0-68.989h-30.622v-37.957h30.622zm-30.622-104.735h30.622v36.779h-30.622z"/><path d="m307.403 215.221h-223.639v235.936h223.64v-235.936zm-30 68.989h-34.547v-38.99h34.547zm-99.092 67.957v-37.957h34.546v37.957zm34.545 30v38.989h-34.546v-38.989zm-64.545-30h-34.547v-37.957h34.547zm30-67.957v-38.99h34.546v38.99zm64.545 30h34.547v37.957h-34.547zm-94.545-68.989v38.99h-34.547v-38.99zm-34.547 136.946h34.547v38.989h-34.547zm129.092 38.989v-38.989h34.547v38.989z"/></svg>
